<svg xmlns="http://www.w3.org/2000/svg" viewBox="0 0 32 32" id="dish">
  <path fill="#0041a0" d="M17,8H15a1,1,0,0,1,0-2H17a1,1,0,0,1,0,2Z"></path>
  <path fill="#00337b" d="M17,6H16V8h1a1,1,0,0,0,0-2Z"></path>
  <path fill="#f0e456" d="M19.25,9.84a10.75,10.75,0,0,0-6.5,0C7.85,11.33,4,16.24,4,21a1,1,0,0,0,1,1H27a1,1,0,0,0,1-1C28,16.24,24.15,11.33,19.25,9.84Z"></path>
  <path fill="#f7ce02" d="M19.25,9.84A10.73,10.73,0,0,0,16,9.33V22H27a1,1,0,0,0,1-1C28,16.24,24.15,11.33,19.25,9.84Z"></path>
  <path fill="#0041a0" d="M29.85,20.48A1,1,0,0,0,29,20H3a1,1,0,0,0-.89,1.45A8.2,8.2,0,0,0,9.47,26H22.53a8.25,8.25,0,0,0,4.33-1.23,8.4,8.4,0,0,0,3-3.31A1,1,0,0,0,29.85,20.48Z"></path>
  <path fill="#00337b" d="M29.85,20.48A1,1,0,0,0,29,20H16v6h6.53a8.25,8.25,0,0,0,4.33-1.23,8.4,8.4,0,0,0,3-3.31A1,1,0,0,0,29.85,20.48Z"></path>
</svg>
